<svg width="56" height="62" viewBox="0 0 56 62" fill="none" xmlns="http://www.w3.org/2000/svg">
<path d="M27.9091 7.60859C33.3902 7.60859 38.5611 8.78662 43.4217 11.1427C48.2823 13.4988 52.3415 16.9014 55.5991 21.3506C55.9611 21.8165 56.0779 22.2305 55.9497 22.5928C55.8214 22.9552 55.6012 23.2657 55.2888 23.5245C54.9765 23.7833 54.6146 23.9003 54.203 23.8754C53.7914 23.8506 53.4294 23.6301 53.1171 23.214C50.2731 19.1767 46.6152 16.0847 42.1435 13.9377C37.6717 11.7907 32.9269 10.7162 27.9091 10.7141C22.8913 10.7121 18.1858 11.7866 13.7927 13.9377C9.39951 16.0888 5.75405 19.1809 2.8563 23.214C2.54605 23.6798 2.18409 23.9386 1.77042 23.9903C1.35675 24.0421 0.994792 23.9386 0.68454 23.6798C0.32258 23.421 0.102301 23.098 0.0237038 22.7109C-0.0548933 22.3237 0.0619687 21.922 0.374289 21.5059C3.58022 17.1064 7.60109 13.6903 12.4369 11.2576C17.2727 8.82492 22.4301 7.60859 27.9091 7.60859ZM27.9091 14.9066C34.8898 14.9066 40.888 17.2358 45.9037 21.8941C50.9195 26.5524 53.4273 32.3236 53.4273 39.2075C53.4273 41.7955 52.51 43.9569 50.6754 45.6919C48.8408 47.4269 46.6039 48.2933 43.9647 48.2912C41.3255 48.2892 39.0637 47.4227 37.1795 45.6919C35.2952 43.9611 34.351 41.7996 34.3469 39.2075C34.3469 37.4995 33.7139 36.0626 32.4481 34.897C31.1823 33.7314 29.6693 33.1496 27.9091 33.1517C26.149 33.1538 24.636 33.7366 23.3701 34.9001C22.1043 36.0637 21.4714 37.4995 21.4714 39.2075C21.4714 44.2281 22.9585 48.4206 25.9328 51.785C28.9071 55.1493 32.746 57.5043 37.4494 58.8501C37.9147 59.0054 38.225 59.2642 38.3801 59.6265C38.5353 59.9888 38.5611 60.377 38.4577 60.7911C38.3543 61.1534 38.1474 61.4639 37.8372 61.7227C37.5269 61.9815 37.1391 62.0592 36.6737 61.9556C31.296 60.6099 26.9008 57.9308 23.488 53.9185C20.0753 49.9061 18.3689 45.0025 18.3689 39.2075C18.3689 36.6196 19.2996 34.4457 21.1612 32.6859C23.0227 30.9261 25.272 30.0462 27.9091 30.0462C30.5463 30.0462 32.7956 30.9261 34.6571 32.6859C36.5186 34.4457 37.4494 36.6196 37.4494 39.2075C37.4494 40.9156 38.0957 42.3524 39.3884 43.518C40.6812 44.6836 42.2066 45.2654 43.9647 45.2633C45.7228 45.2613 47.2223 44.6795 48.4633 43.518C49.7043 42.3565 50.3248 40.9197 50.3248 39.2075C50.3248 33.2035 48.1272 28.1569 43.732 24.068C39.3367 19.979 34.0883 17.9345 27.9867 17.9345C21.8851 17.9345 16.6367 19.979 12.2414 24.068C7.84618 28.1569 5.64857 33.1776 5.64857 39.1299C5.64857 40.3721 5.76543 41.9249 5.99915 43.7882C6.23287 45.6515 6.78823 47.8254 7.6652 50.3098C7.82033 50.7757 7.80792 51.1897 7.62797 51.5521C7.44803 51.9144 7.15019 52.1732 6.73445 52.3284C6.31871 52.4837 5.91849 52.4713 5.53378 52.2912C5.14906 52.1111 4.87708 51.8129 4.71781 51.3968C3.94218 49.3782 3.38683 47.373 3.05176 45.3813C2.71669 43.3896 2.54812 41.3317 2.54605 39.2075C2.54605 32.3236 5.04151 26.5524 10.0324 21.8941C15.0233 17.2358 20.9822 14.9066 27.9091 14.9066ZM27.9091 0C31.2185 0 34.4503 0.400615 37.6045 1.20185C40.7587 2.00308 43.8095 3.15523 46.7569 4.65832C47.2223 4.91711 47.4943 5.22767 47.5729 5.58998C47.6515 5.9523 47.6122 6.31461 47.455 6.67692C47.2978 7.03924 47.0393 7.32391 46.6794 7.53095C46.3195 7.73798 45.8799 7.7121 45.3608 7.45331C42.6202 6.05581 39.7887 4.98233 36.8661 4.23286C33.9435 3.48339 30.9579 3.10762 27.9091 3.10555C24.91 3.10555 21.9626 3.45544 19.067 4.15522C16.1713 4.855 13.4049 5.95437 10.7677 7.45331C10.3541 7.7121 9.94038 7.77732 9.52671 7.64896C9.11304 7.5206 8.80279 7.24834 8.59596 6.8322C8.38912 6.41606 8.33742 6.04132 8.44083 5.70799C8.54425 5.37466 8.80279 5.07653 9.21646 4.8136C12.1121 3.26082 15.1371 2.07036 18.2913 1.24222C21.4456 0.414072 24.6515 0 27.9091 0ZM27.9091 22.4376C32.718 22.4376 36.8547 24.0556 40.3192 27.2915C43.7837 30.5275 45.5159 34.4995 45.5159 39.2075C45.5159 39.6733 45.3742 40.0491 45.0909 40.3348C44.8075 40.6205 44.4321 40.7624 43.9647 40.7603C43.551 40.7603 43.189 40.6185 42.8788 40.3348C42.5685 40.0512 42.4134 39.6754 42.4134 39.2075C42.4134 35.3256 40.978 32.0782 38.1071 29.4654C35.2362 26.8526 31.8369 25.5452 27.9091 25.5431C23.9813 25.541 20.6079 26.8485 17.7887 29.4654C14.9696 32.0824 13.56 35.3297 13.56 39.2075C13.56 43.4 14.2839 46.959 15.7318 49.8844C17.1796 52.8098 19.2996 55.7466 22.0919 58.6948C22.4022 59.0054 22.5573 59.3677 22.5573 59.7817C22.5573 60.1958 22.4022 60.5581 22.0919 60.8687C21.7817 61.1792 21.4197 61.3345 21.006 61.3345C20.5924 61.3345 20.2304 61.1792 19.9201 60.8687C16.8693 57.6596 14.53 54.3864 12.9023 51.049C11.2745 47.7115 10.4595 43.7644 10.4575 39.2075C10.4575 34.4974 12.1639 30.5244 15.5766 27.2884C18.9894 24.0525 23.1002 22.4355 27.9091 22.4376ZM27.8316 37.6547C28.2969 37.6547 28.6723 37.81 28.9578 38.1206C29.2432 38.4311 29.3849 38.7934 29.3828 39.2075C29.3828 43.0894 30.779 46.2726 33.5712 48.7571C36.3635 51.2415 39.6211 52.4837 43.3442 52.4837C43.6544 52.4837 44.0939 52.4578 44.6627 52.4061C45.2315 52.3543 45.8262 52.2767 46.4467 52.1732C46.912 52.0696 47.3133 52.1349 47.6504 52.3688C47.9876 52.6028 48.2068 52.9516 48.3082 53.4154C48.4116 53.8295 48.334 54.1918 48.0755 54.5023C47.8169 54.8129 47.4808 55.0199 47.0672 55.1234C46.1364 55.3822 45.3225 55.5251 44.6255 55.552C43.9285 55.5789 43.5013 55.5913 43.3442 55.5893C38.7421 55.5893 34.7471 54.0365 31.3591 50.9309C27.9712 47.8254 26.2782 43.9176 26.2803 39.2075C26.2803 38.7934 26.423 38.4311 26.7085 38.1206C26.9939 37.81 27.3683 37.6547 27.8316 37.6547Z" fill="#17B3C1"/>
</svg>
