<svg width="46" height="46" viewBox="0 0 46 46" fill="none" xmlns="http://www.w3.org/2000/svg">
<path d="M9.44642 9.85718C7.8125 9.85718 6.2455 10.5063 5.09014 11.6616C3.93478 12.817 3.28571 14.384 3.28571 16.0179V29.9822C3.28571 31.6161 3.93478 33.1831 5.09014 34.3385C6.2455 35.4938 7.8125 36.1429 9.44642 36.1429H25.0536C26.6875 36.1429 28.2545 35.4938 29.4098 34.3385C30.5652 33.1831 31.2143 31.6161 31.2143 29.9822V29.1558L38.1997 33.9792C40.1054 35.2952 42.7077 33.93 42.7077 31.6135V14.38C42.7077 12.0635 40.1054 10.6967 38.1997 12.0142L31.2143 16.8377V16.0179C31.2143 14.384 30.5652 12.817 29.4098 11.6616C28.2545 10.5063 26.6875 9.85718 25.0536 9.85718H9.44642ZM31.2143 19.831L39.5994 14.0415C39.6611 13.999 39.7332 13.9741 39.808 13.9696C39.8828 13.9651 39.9574 13.9811 40.0238 14.016C40.0901 14.0509 40.1456 14.1032 40.1843 14.1673C40.2231 14.2315 40.2435 14.305 40.2434 14.38V31.6135C40.2435 31.6885 40.2231 31.762 40.1843 31.8262C40.1456 31.8903 40.0901 31.9426 40.0238 31.9775C39.9574 32.0124 39.8828 32.0284 39.808 32.0239C39.7332 32.0194 39.6611 31.9945 39.5994 31.952L31.2143 26.1593V19.831ZM5.74999 16.0179C5.74999 15.0375 6.13944 14.0973 6.83265 13.4041C7.52587 12.7109 8.46607 12.3215 9.44642 12.3215H25.0536C26.0339 12.3215 26.9741 12.7109 27.6673 13.4041C28.3605 14.0973 28.75 15.0375 28.75 16.0179V29.9822C28.75 30.9625 28.3605 31.9027 27.6673 32.5959C26.9741 33.2892 26.0339 33.6786 25.0536 33.6786H9.44642C8.46607 33.6786 7.52587 33.2892 6.83265 32.5959C6.13944 31.9027 5.74999 30.9625 5.74999 29.9822V16.0179Z" fill="#17B3C1"/>
</svg>
