<svg width="55" height="55" viewBox="0 0 55 55" fill="none" xmlns="http://www.w3.org/2000/svg">
<path d="M50.4166 27.5C50.4166 26.2344 49.3907 25.2084 48.125 25.2084C46.8593 25.2084 45.8333 26.2344 45.8333 27.5H50.4166ZM27.5 9.16671C28.7657 9.16671 29.7916 8.14069 29.7916 6.87504C29.7916 5.60939 28.7657 4.58337 27.5 4.58337V9.16671ZM44.6875 45.8334H10.3125V50.4167H44.6875V45.8334ZM9.16665 44.6875V10.3125H4.58331V44.6875H9.16665ZM45.8333 27.5V44.6875H50.4166V27.5H45.8333ZM10.3125 9.16671H27.5V4.58337H10.3125V9.16671ZM10.3125 45.8334C9.67966 45.8334 9.16665 45.3204 9.16665 44.6875H4.58331C4.58331 47.8516 7.14834 50.4167 10.3125 50.4167V45.8334ZM44.6875 50.4167C47.8516 50.4167 50.4166 47.8516 50.4166 44.6875H45.8333C45.8333 45.3204 45.3203 45.8334 44.6875 45.8334V50.4167ZM9.16665 10.3125C9.16665 9.67972 9.67965 9.16671 10.3125 9.16671V4.58337C7.14835 4.58337 4.58331 7.1484 4.58331 10.3125H9.16665Z" fill="#17B3C1"/>
<path d="M6.875 40.1041L19.1275 28.8726C19.9821 28.0892 21.2872 28.0675 22.1674 28.822L36.6667 41.2499" stroke="#17B3C1" stroke-width="2" stroke-linecap="round" stroke-linejoin="round"/>
<path d="M32.0833 35.5209L37.5529 30.0513C38.3593 29.245 39.636 29.1542 40.5484 29.8385L48.125 35.5209" stroke="#17B3C1" stroke-width="2" stroke-linecap="round" stroke-linejoin="round"/>
<path d="M42.3958 20.625V6.875" stroke="#17B3C1" stroke-width="2" stroke-linecap="round" stroke-linejoin="round"/>
<path d="M36.6666 12.6042L42.3958 6.875L48.125 12.6042" stroke="#17B3C1" stroke-width="2" stroke-linecap="round" stroke-linejoin="round"/>
</svg>
