<svg width="18" height="18" viewBox="0 0 18 18" fill="none" xmlns="http://www.w3.org/2000/svg">
<g clip-path="url(#clip0_0_1164)">
<path fill-rule="evenodd" clip-rule="evenodd" d="M11.0677 1.96573C11.7263 1.30713 12.6196 0.937134 13.551 0.937134C14.4824 0.937134 15.3756 1.30713 16.0342 1.96573C16.6928 2.62433 17.0628 3.51758 17.0628 4.44898C17.0628 5.38038 16.6928 6.27363 16.0342 6.93223L8.91973 14.0467C8.51323 14.4532 8.27473 14.6917 8.00773 14.8995C7.69373 15.1455 7.35623 15.3542 6.99523 15.5257C6.69073 15.6705 6.36973 15.7777 5.82523 15.9592L3.32623 16.7917L2.72473 16.9927C2.4855 17.0726 2.22876 17.0842 1.98328 17.0263C1.73781 16.9684 1.51332 16.8433 1.33498 16.665C1.15664 16.4866 1.03151 16.2622 0.973623 16.0167C0.915732 15.7712 0.927371 15.5145 1.00723 15.2752L2.04073 12.1755C2.22223 11.6302 2.32948 11.3092 2.47423 11.004C2.64623 10.644 2.85498 10.3065 3.10048 9.99148C3.30748 9.72598 3.54673 9.48673 3.95323 9.08023L11.0677 1.96573ZM3.29998 15.6157L5.43073 14.9047C6.02398 14.7067 6.27598 14.622 6.51073 14.5102C6.79673 14.3732 7.06498 14.2075 7.31548 14.013C7.52023 13.8525 7.70923 13.6657 8.15173 13.2232L13.8292 7.54573C13.0508 7.2699 12.3442 6.82292 11.7615 6.23773C11.1768 5.65485 10.7304 4.94826 10.455 4.16998L4.77748 9.84748C4.33498 10.2892 4.14748 10.4775 3.98773 10.683C3.79273 10.933 3.62698 11.2012 3.49048 11.4877C3.37873 11.7225 3.29398 11.9745 3.09598 12.5677L2.38498 14.7L3.29998 15.6157ZM11.3662 3.25723C11.3925 3.38848 11.4352 3.56698 11.508 3.77473C11.7274 4.40251 12.0864 4.97232 12.558 5.44123C13.0267 5.91271 13.5962 6.27172 14.2237 6.49123C14.4322 6.56398 14.6107 6.60673 14.742 6.63298L15.2385 6.13648C15.6834 5.68839 15.9327 5.0822 15.9316 4.45071C15.9305 3.81922 15.6791 3.21391 15.2326 2.76737C14.7861 2.32084 14.1807 2.06949 13.5493 2.06839C12.9178 2.06728 12.3116 2.31651 11.8635 2.76148L11.3662 3.25723Z" fill="#17B3C1"/>
</g>
<defs>
<clipPath id="clip0_0_1164">
<rect width="18" height="18" fill="white"/>
</clipPath>
</defs>
</svg>
