<svg width="12" height="12" viewBox="0 0 12 12" fill="none" xmlns="http://www.w3.org/2000/svg">
<g clip-path="url(#clip0_0_1204)">
<path d="M0 4.5V0.499219L1.52109 2.02031C2.61797 0.782812 4.21406 0 6 0C9.31406 0 12 2.68594 12 6C12 9.31406 9.31406 12 6 12C4.34297 12 2.84297 11.3297 1.75781 10.2422L2.81953 9.18281C3.63281 9.99609 4.75781 10.5 6 10.5C8.48438 10.5 10.5 8.48672 10.5 6C10.5 3.51328 8.48438 1.5 6 1.5C4.62891 1.5 3.4125 2.12109 2.58984 3.08906L4.00078 4.5H0Z" fill="#17B3C1"/>
</g>
<defs>
<clipPath id="clip0_0_1204">
<rect width="12" height="12" fill="white" transform="matrix(-1 0 0 1 12 0)"/>
</clipPath>
</defs>
</svg>
